HIERARCHY
ROOT RootJoint
{
    OFFSET   0.000000   0.000000   0.000000
    CHANNELS 6 Xposition Yposition Zposition Xrotation Yrotation Zrotation
    JOINT pelvis_lowerback
    {
        OFFSET   0.000000   0.093605   0.000000
        CHANNELS 3 Xrotation Yrotation Zrotation
        JOINT lowerback_torso
        {
            OFFSET   0.000000   0.100000   0.000000
            CHANNELS 3 Xrotation Yrotation Zrotation
            JOINT torso_head
            {
                OFFSET   0.000000   0.282350   0.000000
                CHANNELS 3 Xrotation Yrotation Zrotation
                End Site
                {
                    OFFSET   0.000000   0.192650   0.000000
                }
            }
            JOINT rTorso_Clavicle
            {
                OFFSET  -0.001000   0.157500   0.000000
                CHANNELS 3 Xrotation Yrotation Zrotation
                JOINT rShoulder
                {
                    OFFSET  -0.117647   0.000000   0.000000
                    CHANNELS 3 Xrotation Yrotation Zrotation
                    JOINT rElbow
                    {
                        OFFSET  -0.245000   0.000000   0.000000
                        CHANNELS 3 Xrotation Yrotation Zrotation
                        JOINT rWrist
                        {
                            OFFSET  -0.240000   0.000000   0.000000
                            CHANNELS 3 Xrotation Yrotation Zrotation
                            End Site
                            {
                                OFFSET  -0.116353  -0.002500   0.000000
                            }
                        }
                    }
                }
            }
            JOINT lTorso_Clavicle
            {
                OFFSET   0.001000   0.157500   0.000000
                CHANNELS 3 Xrotation Yrotation Zrotation
                JOINT lShoulder
                {
                    OFFSET   0.117647   0.000000   0.000000
                    CHANNELS 3 Xrotation Yrotation Zrotation
                    JOINT lElbow
                    {
                        OFFSET   0.245000   0.000000   0.000000
                        CHANNELS 3 Xrotation Yrotation Zrotation
                        JOINT lWrist
                        {
                            OFFSET   0.240000   0.000000   0.000000
                            CHANNELS 3 Xrotation Yrotation Zrotation
                            End Site
                            {
                                OFFSET   0.116353  -0.002500   0.000000
                            }
                        }
                    }
                }
            }
        }
    }
    JOINT rHip
    {
        OFFSET  -0.100000  -0.051395   0.000000
        CHANNELS 3 Xrotation Yrotation Zrotation
        JOINT rKnee
        {
            OFFSET   0.000000  -0.410000   0.000000
            CHANNELS 3 Xrotation Yrotation Zrotation
            JOINT rAnkle
            {
                OFFSET   0.000000  -0.390000   0.000000
                CHANNELS 3 Xrotation Yrotation Zrotation
                JOINT rToeJoint
                {
                    OFFSET   0.000000  -0.050000   0.130000
                    CHANNELS 3 Xrotation Yrotation Zrotation
                    End Site
                    {
                        OFFSET  -0.010000   0.002000   0.060000
                    }
                }
            }
        }
    }
    JOINT lHip
    {
        OFFSET   0.100000  -0.051395   0.000000
        CHANNELS 3 Xrotation Yrotation Zrotation
        JOINT lKnee
        {
            OFFSET   0.000000  -0.410000   0.000000
            CHANNELS 3 Xrotation Yrotation Zrotation
            JOINT lAnkle
            {
                OFFSET   0.000000  -0.390000   0.000000
                CHANNELS 3 Xrotation Yrotation Zrotation
                JOINT lToeJoint
                {
                    OFFSET   0.000000  -0.050000   0.130000
                    CHANNELS 3 Xrotation Yrotation Zrotation
                    End Site
                    {
                        OFFSET   0.010000   0.002000   0.060000
                    }
                }
            }
        }
    }
}
MOTION
Frames: 5
Frame Time:   0.008333
 -2.360354   0.905445   3.856063  24.926602 -15.188566   7.659009  34.423090  -1.049993   1.756697   0.723621  -0.921682  -0.152836   1.138740  -1.082130  -3.136418  -4.916656  20.859447  -6.053518 -10.425372  23.211880  31.387402  -0.000006  38.206378  -0.000005   2.056286   4.734820  -2.563254  -7.290043 -22.719998   4.963379  -2.895204 -26.600931 -22.729779   0.000021 -34.676351  -0.000135   7.407129  -7.843731   1.695365 -36.329034  -2.715747  -4.926217   5.485584   0.000006  -0.000006   7.334522  -0.411628   2.959605  -1.076776  -0.000151  -0.000104 -31.034451   4.680889   8.142722  10.319923   0.000013  -0.000013  -2.719776   5.904539  -3.259667   0.311975  -0.000002   0.000000
 -2.360435   0.905461   3.856013  24.948756 -15.184234   7.659096  34.378952  -1.040395   1.739285   0.735496  -0.922281  -0.173122   1.180677  -1.096404  -3.141506  -4.909110  20.854892  -6.086374 -10.429608  23.205160  31.366587  -0.000010  38.217613  -0.000008   2.052206   4.725274  -2.570641  -7.296728 -22.696610   4.962416  -2.898474 -26.626452 -22.739683   0.000010 -34.760651  -0.000148   7.406921  -7.838033   1.678816 -36.335404  -2.709432  -4.913513   5.454291   0.000006  -0.000008   7.341136  -0.425974   2.949172  -1.003341  -0.000118  -0.000083 -31.038288   4.685170   8.151991  10.272226   0.000013  -0.000014  -2.691439   5.898000  -3.261519   0.312874  -0.000001   0.000000
 -2.360499   0.905476   3.855968  24.969361 -15.180218   7.660610  34.335427  -1.031798   1.721698   0.745217  -0.923428  -0.194293   1.221870  -1.110033  -3.146994  -4.903095  20.851382  -6.119094 -10.434127  23.199586  31.345851  -0.000014  38.228494  -0.000011   2.048619   4.717374  -2.577404  -7.305504 -22.675995   4.963302  -2.903180 -26.652342 -22.747224  -0.000005 -34.841496  -0.000159   7.407216  -7.844330   1.667400 -36.340158  -2.702829  -4.903513   5.421884   0.000007  -0.000010   7.350192  -0.439091   2.938106  -0.943930  -0.000091  -0.000066 -31.041222   4.689930   8.158518  10.226733   0.000012  -0.000013  -2.664315   5.892050  -3.263804   0.313394  -0.000001   0.000000
 -2.360550   0.905489   3.855929  24.988024 -15.175715   7.662443  34.293033  -1.024563   1.704290   0.752281  -0.925148  -0.214843   1.260572  -1.122769  -3.152364  -4.898334  20.848724  -6.150541 -10.438927  23.194860  31.325746  -0.000017  38.238908  -0.000012   2.045300   4.711062  -2.585301  -7.315107 -22.658047   4.965209  -2.908463 -26.677481 -22.753118  -0.000022 -34.917523  -0.000166   7.407654  -7.854653   1.660378 -36.343815  -2.696621  -4.895725   5.390857   0.000007  -0.000011   7.359807  -0.451549   2.927038  -0.895833  -0.000069  -0.000053 -31.043642   4.694252   8.163079  10.184630   0.000011  -0.000013  -2.639059   5.886249  -3.266410   0.313617  -0.000001   0.000000
 -2.360588   0.905501   3.855896  25.004639 -15.170688   7.664213  34.251707  -1.018527   1.687217   0.757011  -0.927293  -0.234479   1.296655  -1.134664  -3.157494  -4.894451  20.846670  -6.180375 -10.443824  23.190790  31.306565  -0.000019  38.248824  -0.000013   2.042180   4.706020  -2.594236  -7.324982 -22.642216   4.967690  -2.913966 -26.701560 -22.757851  -0.000037 -34.988766  -0.000170   7.408150  -7.866264   1.656289 -36.346313  -2.690944  -4.889763   5.361695   0.000006  -0.000012   7.369319  -0.463496   2.916207  -0.856823  -0.000053  -0.000042 -31.045384   4.698043   8.166102  10.145873   0.000009  -0.000012  -2.615782   5.880466  -3.269148   0.313619  -0.000001   0.000000
